<svg xmlns="http://www.w3.org/2000/svg" xmlns:xlink="http://www.w3.org/1999/xlink" width="300" viewBox="0 0 224.87999 225" height="300" preserveAspectRatio="xMidYMid meet"><defs><clipPath id="id1"><path d="M 14 12 L 214 12 L 214 211.371094 L 14 211.371094 Z M 14 12 " clip-rule="nonzero"></path></clipPath></defs><g clip-path="url(#id1)"><path fill="#545454" d="M 135.777344 111.710938 L 209.1875 38.308594 C 215.203125 32.292969 215.203125 22.542969 209.1875 16.53125 C 203.171875 10.515625 193.421875 10.515625 187.40625 16.53125 L 113.996094 89.933594 L 40.582031 16.53125 C 34.566406 10.515625 24.816406 10.515625 18.800781 16.53125 C 12.789062 22.542969 12.785156 32.292969 18.800781 38.308594 L 92.214844 111.710938 L 18.800781 185.113281 C 12.785156 191.128906 12.785156 200.878906 18.800781 206.894531 C 21.808594 209.898438 25.75 211.402344 29.691406 211.402344 C 33.632812 211.402344 37.574219 209.898438 40.582031 206.894531 L 113.996094 133.488281 L 187.40625 206.894531 C 190.414062 209.898438 194.355469 211.402344 198.296875 211.402344 C 202.238281 211.402344 206.179688 209.898438 209.1875 206.894531 C 215.203125 200.878906 215.203125 191.128906 209.1875 185.113281 Z M 135.777344 111.710938 " fill-opacity="1" fill-rule="nonzero"></path></g></svg>